<svg width="643" height="528" viewBox="0 0 643 528" fill="none" xmlns="http://www.w3.org/2000/svg">
<g clip-path="url(#clip0_4_947)">
<path d="M470.64 434.677C475.745 436.472 481.226 436.922 486.555 435.983C491.884 435.044 496.882 432.748 501.067 429.316C511.724 420.369 515.065 405.629 517.784 391.98L525.825 351.61L508.99 363.205C496.882 371.544 484.503 380.149 476.12 392.228C467.737 404.306 464.077 420.793 470.813 433.863" fill="#E6E6E6"/>
<path d="M472.079 483.554C470.375 471.139 468.623 458.564 469.818 446.016C470.879 434.872 474.279 423.987 481.199 415.063C484.872 410.334 489.341 406.283 494.406 403.091C495.727 402.257 496.942 404.351 495.627 405.181C486.864 410.721 480.085 418.902 476.269 428.544C472.055 439.266 471.378 450.955 472.104 462.345C472.544 469.233 473.474 476.076 474.412 482.91C474.486 483.219 474.44 483.545 474.283 483.821C474.126 484.098 473.871 484.304 473.567 484.399C473.258 484.482 472.928 484.44 472.649 484.282C472.371 484.124 472.166 483.862 472.079 483.554Z" fill="#F2F2F2"/>
<path d="M488.491 461.585C490.681 464.913 493.69 467.622 497.23 469.449C500.77 471.277 504.72 472.161 508.701 472.018C518.932 471.533 527.461 464.39 535.138 457.61L557.848 437.554L542.818 436.835C532.009 436.317 520.922 435.835 510.627 439.169C500.333 442.503 490.838 450.527 488.956 461.185" fill="#E6E6E6"/>
<path d="M467.263 490.69C475.465 476.175 484.978 460.042 501.976 454.886C506.702 453.457 511.658 452.945 516.577 453.378C518.127 453.511 517.74 455.902 516.193 455.768C507.948 455.083 499.719 457.261 492.892 461.934C486.322 466.407 481.207 472.626 476.877 479.221C474.225 483.26 471.85 487.471 469.474 491.676C468.714 493.02 466.495 492.05 467.263 490.69Z" fill="#F2F2F2"/>
<path d="M265.121 388.714C255.059 392.252 244.257 393.138 233.754 391.287C223.251 389.436 213.401 384.911 205.154 378.148C184.15 360.514 177.565 331.464 172.207 304.564C166.924 278.043 161.641 251.521 156.358 225L189.539 247.853C213.4 264.287 237.799 281.248 254.321 305.052C270.842 328.856 278.054 361.351 264.78 387.109" fill="#E6E6E6"/>
<path d="M262.284 485.043C265.643 460.574 269.096 435.792 266.74 411.061C264.648 389.098 257.949 367.646 244.311 350.057C237.072 340.738 228.263 332.754 218.281 326.463C215.678 324.819 213.282 328.946 215.874 330.582C233.146 341.501 246.505 357.624 254.026 376.627C262.332 397.759 263.666 420.795 262.234 443.243C261.369 456.819 259.534 470.305 257.686 483.774C257.54 484.384 257.631 485.025 257.94 485.57C258.249 486.115 258.754 486.522 259.351 486.709C259.961 486.873 260.611 486.79 261.16 486.478C261.709 486.166 262.113 485.651 262.284 485.043Z" fill="#F2F2F2"/>
<path d="M229.938 441.745C225.623 448.305 219.691 453.643 212.715 457.245C205.739 460.846 197.953 462.59 190.107 462.308C169.944 461.351 153.135 447.275 138.003 433.911L93.2466 394.385L122.868 392.967C144.17 391.947 166.021 390.996 186.311 397.567C206.6 404.137 225.312 419.951 229.022 440.957" fill="#E6E6E6"/>
<path d="M271.775 499.108C255.611 470.5 236.862 438.705 203.361 428.542C194.046 425.726 184.279 424.718 174.585 425.57C171.53 425.834 172.293 430.545 175.342 430.282C191.591 428.932 207.809 433.224 221.265 442.434C234.213 451.25 244.294 463.506 252.828 476.503C258.054 484.464 262.736 492.763 267.419 501.051C268.915 503.7 273.289 501.788 271.775 499.108Z" fill="#F2F2F2"/>
<path d="M147.016 111.794L7.8432 82.6283L6.03457 82.2502C5.1135 82.0558 4.15625 82.1254 3.27294 82.4509C2.38964 82.7765 1.61614 83.3448 1.04139 84.0905C0.466643 84.8363 0.114005 85.7291 0.0240075 86.6664C-0.0659897 87.6037 0.110326 88.5473 0.532668 89.3888L56.3849 201.161C56.7464 201.879 57.275 202.499 57.9263 202.971C58.5776 203.442 59.3326 203.749 60.1276 203.868C60.9251 203.987 61.7396 203.91 62.5009 203.644C63.2621 203.378 63.947 202.93 64.4966 202.34L102.588 161.685C102.859 161.389 103.188 161.151 103.555 160.988C103.922 160.826 104.319 160.74 104.721 160.738C105.266 160.727 105.805 160.865 106.278 161.137C106.752 161.408 107.143 161.804 107.409 162.28L115.346 176.76C115.853 177.725 116.669 178.493 117.663 178.942C118.657 179.39 119.772 179.493 120.831 179.234L120.87 179.226C121.942 178.992 122.905 178.404 123.603 177.557C124.301 176.71 124.694 175.653 124.718 174.555L126.092 141.015C126.109 140.596 126.211 140.186 126.392 139.808C126.587 139.435 126.853 139.102 127.174 138.83L149.18 120.542C149.904 119.94 150.443 119.148 150.737 118.254C151.03 117.36 151.066 116.402 150.84 115.489C150.614 114.576 150.136 113.745 149.46 113.091C148.783 112.438 147.936 111.988 147.016 111.794ZM147.908 119.006L125.902 137.294C125.616 137.528 125.356 137.793 125.129 138.085L7.60968 85.6144C7.50601 85.5669 7.39794 85.5297 7.28701 85.5033C6.83425 85.3894 6.35596 85.4375 5.93484 85.639C5.51372 85.8405 5.17627 86.1829 4.98082 86.607C4.78538 87.0311 4.74422 87.5101 4.86449 87.9613C4.98476 88.4125 5.25889 88.8075 5.63947 89.0779L102.427 159.312C101.94 159.569 101.5 159.908 101.128 160.315L63.037 200.97C62.7064 201.322 62.2958 201.589 61.84 201.748C61.3842 201.908 60.8967 201.954 60.4189 201.885C59.9411 201.816 59.4871 201.632 59.0955 201.349C58.7039 201.067 58.3863 200.694 58.1696 200.262L2.31744 88.4905C2.06772 87.9855 1.96484 87.4204 2.02051 86.8598C2.07619 86.2991 2.2882 85.7653 2.63236 85.3193C2.97652 84.8733 3.43898 84.5329 3.9671 84.337C4.49523 84.1411 5.06776 84.0974 5.61946 84.2111L7.47101 84.5998L146.601 113.755C147.153 113.871 147.662 114.14 148.068 114.532C148.475 114.924 148.763 115.423 148.899 115.97C149.035 116.518 149.015 117.094 148.84 117.63C148.664 118.167 148.342 118.644 147.908 119.006Z" fill="#CCCCCC"/>
<path d="M147.016 111.794L7.8432 82.6283L6.03457 82.2502C5.1135 82.0558 4.15625 82.1254 3.27294 82.4509C2.38964 82.7765 1.61614 83.3448 1.04139 84.0905C0.466643 84.8363 0.114005 85.7291 0.0240075 86.6664C-0.0659897 87.6037 0.110326 88.5473 0.532668 89.3888L56.3849 201.161C56.7464 201.879 57.275 202.499 57.9263 202.971C58.5776 203.442 59.3326 203.749 60.1276 203.868C60.9251 203.987 61.7396 203.91 62.5009 203.644C63.2621 203.378 63.947 202.93 64.4966 202.34L102.588 161.685C102.859 161.389 103.188 161.151 103.555 160.988C103.922 160.826 104.319 160.74 104.721 160.738C105.266 160.727 105.805 160.865 106.278 161.137C106.752 161.408 107.143 161.804 107.409 162.28L115.346 176.76C115.853 177.725 116.669 178.493 117.663 178.942C118.657 179.39 119.772 179.493 120.831 179.234L120.87 179.226C121.942 178.992 122.905 178.404 123.603 177.557C124.301 176.71 124.694 175.653 124.718 174.555L126.092 141.015C126.109 140.596 126.211 140.186 126.392 139.808C126.587 139.435 126.853 139.102 127.174 138.83L149.18 120.542C149.904 119.94 150.443 119.148 150.737 118.254C151.03 117.36 151.066 116.402 150.84 115.489C150.614 114.576 150.136 113.745 149.46 113.091C148.783 112.438 147.936 111.988 147.016 111.794ZM147.908 119.006L125.902 137.294C125.616 137.528 125.356 137.793 125.129 138.085C124.924 138.345 124.747 138.626 124.601 138.923C124.449 139.227 124.329 139.547 124.244 139.876L124.247 139.886C124.157 140.229 124.106 140.581 124.095 140.936L122.722 174.476C122.713 175.136 122.479 175.772 122.06 176.281C121.641 176.79 121.062 177.142 120.417 177.278L120.397 177.282C119.761 177.444 119.09 177.386 118.491 177.119C117.892 176.851 117.402 176.389 117.098 175.807L109.158 161.318C108.749 160.573 108.157 159.944 107.437 159.493C106.717 159.041 105.893 158.781 105.044 158.737L105.035 158.739C104.921 158.734 104.807 158.729 104.695 158.734C103.904 158.739 103.125 158.937 102.427 159.312C101.94 159.569 101.5 159.908 101.128 160.315L63.037 200.97C62.7064 201.322 62.2958 201.589 61.84 201.748C61.3842 201.908 60.8967 201.954 60.4189 201.885C59.9411 201.816 59.4871 201.632 59.0955 201.349C58.7039 201.067 58.3863 200.694 58.1696 200.262L2.31744 88.4905C2.06772 87.9855 1.96484 87.4204 2.02051 86.8598C2.07619 86.2991 2.2882 85.7653 2.63236 85.3193C2.97652 84.8733 3.43898 84.5329 3.9671 84.337C4.49523 84.1411 5.06776 84.0974 5.61946 84.2111L7.47101 84.5998L146.601 113.755C147.153 113.871 147.662 114.14 148.068 114.532C148.475 114.924 148.763 115.423 148.899 115.97C149.035 116.518 149.015 117.094 148.84 117.63C148.664 118.167 148.342 118.644 147.908 119.006Z" fill="#191938"/>
<path d="M125.573 138.282L124.758 140.108L124.247 139.886L124.244 139.876L6.81863 87.456L105.035 158.739L105.044 158.737L105.305 158.934L104.135 160.554L102.427 159.312L5.6396 89.078C5.25901 88.8076 4.98487 88.4126 4.86459 87.9613C4.74431 87.5101 4.78544 87.0311 4.9809 86.607C5.17636 86.1829 5.51384 85.8405 5.93497 85.639C6.35611 85.4375 6.83444 85.3894 7.2872 85.5033C7.39813 85.5297 7.50621 85.5669 7.60987 85.6144L125.129 138.085L125.573 138.282Z" fill="#191938"/>
<path d="M427.732 278.02L432.811 327.69L432.911 328.71L434.42 343.44L446.817 464.72V464.74L449.226 488.27C448.286 489.534 447.453 490.876 446.737 492.28C444.553 496.591 443.486 501.381 443.632 506.212C443.779 511.043 445.135 515.76 447.577 519.93C453.625 518.41 459.59 516.677 465.472 514.73C477.64 510.727 489.507 505.861 500.983 500.17C499.79 493.601 496.36 487.647 491.276 483.32L478.829 333.73L477.739 320.61L474.19 278.02H427.732Z" fill="#FFB8B8"/>
<path d="M463.329 142.737C488.998 117.061 488.999 75.4322 463.329 49.7562C437.66 24.0802 396.041 24.0803 370.372 49.7563C344.702 75.4322 344.702 117.061 370.372 142.737C396.041 168.413 437.659 168.413 463.329 142.737Z" fill="#FFB8B8"/>
<path d="M294.335 367.61C294.346 367.74 294.356 367.87 294.366 367.99C294.584 370.555 295.617 372.983 297.313 374.919C299.009 376.854 301.28 378.197 303.793 378.75L401.888 400.18C402.739 400.366 403.607 400.46 404.478 400.46C407.109 400.459 409.667 399.595 411.76 398C413.853 396.405 415.365 394.167 416.065 391.63C416.275 390.85 416.505 390.05 416.755 389.22V389.21C420.064 377.97 425.972 362.67 434.42 343.44C436.33 339.09 438.372 334.533 440.548 329.77C440.949 328.89 441.358 328 441.758 327.11C446.247 317.36 451.256 306.807 456.784 295.45C459.49 289.899 461.533 284.049 462.873 278.02C466.434 262.105 465.028 245.48 458.844 230.39C457.585 227.318 456.132 224.329 454.495 221.44C448.039 210.055 438.89 200.427 427.85 193.399C416.811 186.372 404.216 182.159 391.171 181.13C389.101 180.96 387.042 180.88 384.973 180.88C364.273 180.971 344.405 189.036 329.497 203.4C320.699 211.932 314.02 222.404 309.991 233.98C309.732 234.71 309.492 235.45 309.252 236.19C305.558 247.902 302.593 259.831 300.374 271.91C299.045 279.08 297.965 286.15 297.095 293.04C294.046 317.772 293.123 342.72 294.335 367.61Z" fill="#444DF8"/>
<path d="M251.136 493.25C310.732 527.132 381.106 536.69 447.577 519.93C453.625 518.41 459.59 516.677 465.472 514.73C460.254 497.71 454.024 481.017 446.817 464.74V464.72C434.8 437.77 423.763 421.28 418.384 414C417.5 412.794 416.918 411.394 416.687 409.917C416.455 408.44 416.581 406.928 417.054 405.51L418.724 400.5C419.36 398.604 419.512 396.58 419.168 394.61C418.825 392.641 417.995 390.788 416.755 389.22V389.21C416.645 389.07 416.525 388.93 416.405 388.79C372.706 338.99 296.525 366.16 295.755 366.44L295.375 366.58L295.135 366.91C294.875 367.27 294.616 367.62 294.366 367.99C273.711 396.94 259.984 441.44 251.136 493.25Z" fill="#191938"/>
<path d="M161.313 172.619C161.642 174.064 161.856 175.532 161.954 177.01L276.918 243.349L304.861 227.258L334.651 266.267L287.95 299.561C284.177 302.25 279.634 303.643 275.002 303.53C270.37 303.418 265.9 301.805 262.263 298.935L143.715 205.388C138.365 207.369 132.539 207.674 127.012 206.262C121.484 204.85 116.518 201.788 112.772 197.484C109.027 193.179 106.681 187.837 106.045 182.166C105.41 176.495 106.515 170.765 109.215 165.739C111.915 160.712 116.08 156.626 121.158 154.025C126.236 151.424 131.985 150.431 137.64 151.178C143.296 151.925 148.59 154.376 152.819 158.207C157.048 162.037 160.011 167.064 161.313 172.619Z" fill="#FFB8B8"/>
<path d="M278.68 242.33V242.34C279.096 243.846 279.803 245.255 280.759 246.49L300.374 271.91L309.722 284.04L317.92 294.66C318.976 296.031 320.316 297.157 321.847 297.963C323.379 298.769 325.066 299.235 326.793 299.33C328.521 299.425 330.249 299.146 331.859 298.513C333.47 297.88 334.925 296.907 336.125 295.66L365.897 264.74L378.184 251.97C385.166 246.521 389.702 238.526 390.798 229.737C391.894 220.947 389.461 212.082 384.033 205.085C378.604 198.087 370.622 193.529 361.838 192.409C353.054 191.289 344.185 193.699 337.175 199.11L329.497 203.4L284.418 228.62C282.069 229.937 280.229 232.002 279.189 234.487C278.149 236.971 277.97 239.732 278.68 242.33Z" fill="#444DF8"/>
<path d="M408.707 258.27L410.586 318.32L410.596 318.7C410.649 320.431 411.075 322.13 411.844 323.681C412.614 325.233 413.709 326.6 415.054 327.69C416.4 328.779 417.965 329.566 419.642 329.995C421.319 330.425 423.069 330.488 424.773 330.18L432.911 328.71L434.99 328.33H435L441.759 327.11L477.739 320.61L484.628 319.37C486.33 319.06 487.945 318.388 489.365 317.398C490.784 316.409 491.974 315.125 492.853 313.635C493.732 312.144 494.28 310.482 494.46 308.761C494.64 307.04 494.447 305.3 493.895 303.66L474.49 246.19C472.867 237.484 467.86 229.778 460.565 224.76C453.271 219.741 444.284 217.821 435.577 219.42C426.869 221.019 419.15 226.007 414.113 233.29C409.076 240.572 407.132 249.556 408.707 258.27Z" fill="#444DF8"/>
<path d="M406.447 81.124C389.552 92.6896 367.37 104.578 350.115 92.2619C338.785 84.1748 335.216 69.1992 339.81 56.0572C348.072 32.424 370.772 22.0196 392.48 14.0443C420.699 3.67656 451.425 -4.57147 480.557 2.85342C509.689 10.2783 535.435 38.4908 530.176 68.0973C525.947 91.9063 503.494 111.717 506.681 135.688C509.889 159.813 537.013 172.511 560.959 176.823C584.905 181.134 611.701 182.52 628.911 199.724C650.864 221.672 645.382 260.9 624.725 284.072C604.067 307.244 572.895 317.748 542.688 324.888C502.666 334.349 459.38 339.321 421.369 323.62C383.359 307.919 353.779 265.654 364.79 226.021C369.441 209.28 380.398 195.132 390.987 181.358C401.576 167.584 412.298 153.181 416.337 136.282C419.703 122.2 417.212 105.849 407.875 95.2859C406.177 93.4369 405.108 91.0973 404.823 88.6029C404.537 86.1084 405.049 83.5876 406.285 81.4023L406.447 81.124Z" fill="#191938"/>
</g>
<defs>
<clipPath id="clip0_4_947">
<rect width="643" height="528" fill="white"/>
</clipPath>
</defs>
</svg>
