<svg width="1504" height="973" viewBox="0 0 1504 973" fill="none" xmlns="http://www.w3.org/2000/svg">
<path fill-rule="evenodd" clip-rule="evenodd" d="M1503.23 0H9.25647C-7.82021 28.3197 -5.1382 68.1728 50.646 118.826C128.62 189.629 252.817 207.903 397.778 229.232C441.14 235.612 486.36 242.266 532.757 250.68C593.705 261.734 828.118 315.028 781.235 558.602C743.729 753.462 886.722 831.784 1085.19 869.683C1097.76 872.082 1110.41 874.48 1123.09 876.886L1123.09 876.887C1266.2 904.022 1414.23 932.092 1503.23 973V0Z" fill="url(#paint0_linear_72_59)"/>
<path fill-rule="evenodd" clip-rule="evenodd" d="M1503.14 0H528.194C517.05 24.7948 518.8 59.6874 555.204 104.036C606.088 166.026 687.137 182.025 781.737 200.7C810.034 206.286 839.544 212.111 869.821 219.478C909.595 229.156 1062.57 275.817 1031.97 489.073C1007.5 659.679 1100.81 728.253 1230.33 761.434C1238.52 763.531 1246.76 765.627 1255.02 767.73L1255.07 767.741L1255.07 767.741C1348.45 791.499 1445.06 816.075 1503.14 851.891V0Z" fill="url(#paint1_linear_72_59)"/>
<path fill-rule="evenodd" clip-rule="evenodd" d="M808.697 0H1503.23V973H637.809C563.262 836.4 713.912 691.539 942.833 650.741C959.454 647.779 979.701 644.683 1002.43 641.207L1002.43 641.206L1002.44 641.205C1164.5 616.419 1452.75 572.335 1452.75 420.112C1452.75 262.342 1258.4 250.422 1197.04 246.658C1194.29 246.489 1191.82 246.337 1189.63 246.189C1112.12 240.933 996.884 217.098 915.297 171.744C873.393 148.449 818.059 55.6324 808.697 0Z" fill="url(#paint2_linear_72_59)"/>
<defs>
<linearGradient id="paint0_linear_72_59" x1="1443.84" y1="30.7921" x2="1104.95" y2="789.524" gradientUnits="userSpaceOnUse">
<stop stop-color="#444DF8"/>
<stop offset="1" stop-color="#191938"/>
</linearGradient>
<linearGradient id="paint1_linear_72_59" x1="1464.38" y1="26.9595" x2="1113.05" y2="613.244" gradientUnits="userSpaceOnUse">
<stop stop-color="#444DF8"/>
<stop offset="1" stop-color="#191938"/>
</linearGradient>
<linearGradient id="paint2_linear_72_59" x1="1096.98" y1="-33.7717" x2="1096.98" y2="1146.01" gradientUnits="userSpaceOnUse">
<stop stop-color="#191938"/>
<stop offset="1" stop-color="#444DF8"/>
</linearGradient>
</defs>
</svg>
