<svg width="858" height="926" viewBox="0 0 858 926" fill="none" xmlns="http://www.w3.org/2000/svg">
<mask id="mask0_75_75" style="mask-type:alpha" maskUnits="userSpaceOnUse" x="0" y="0" width="858" height="926">
<rect width="858" height="926" transform="matrix(-1 0 0 1 858 0)" fill="#D9D9D9"/>
</mask>
<g mask="url(#mask0_75_75)">
<path fill-rule="evenodd" clip-rule="evenodd" d="M1598.88 0L9.84534 0C-8.3178 26.9518 -5.46501 64.8797 53.8686 113.086C136.804 180.469 268.904 197.86 423.089 218.159C469.21 224.231 517.308 230.563 566.656 238.571C631.482 249.091 880.811 299.811 830.945 531.619C791.053 717.066 943.144 791.606 1154.24 827.673C1167.59 829.954 1181.03 832.234 1194.51 834.521L1194.56 834.529C1346.77 860.354 1504.22 887.068 1598.88 926L1598.88 0Z" fill="url(#paint0_linear_75_75)"/>
<path fill-rule="evenodd" clip-rule="evenodd" d="M1598.78 0L561.802 0C549.949 23.5971 551.81 56.8043 590.53 99.011C644.653 158.007 730.859 173.233 831.478 191.005C861.576 196.321 892.963 201.865 925.167 208.877C967.471 218.087 1130.18 262.494 1097.64 465.449C1071.6 627.814 1170.86 693.076 1308.62 724.654C1317.34 726.653 1326.12 728.651 1334.92 730.656C1434.26 753.267 1537.01 776.656 1598.78 810.742L1598.78 0Z" fill="url(#paint1_linear_75_75)"/>
<path fill-rule="evenodd" clip-rule="evenodd" d="M860.155 0L1598.88 0V926L678.394 926C599.103 795.999 759.339 658.135 1002.83 619.308C1020.51 616.488 1042.05 613.541 1066.23 610.232C1238.6 586.644 1545.19 544.689 1545.19 399.819C1545.19 249.67 1338.48 238.325 1273.21 234.743C1270.29 234.583 1267.65 234.438 1265.33 234.297C1182.89 229.295 1060.32 206.611 973.539 163.448C928.968 141.278 870.113 52.9451 860.155 0Z" fill="url(#paint2_linear_75_75)"/>
</g>
<defs>
<linearGradient id="paint0_linear_75_75" x1="1535.72" y1="29.3047" x2="1237.23" y2="776.156" gradientUnits="userSpaceOnUse">
<stop stop-color="#444DF8"/>
<stop offset="1" stop-color="#191938"/>
</linearGradient>
<linearGradient id="paint1_linear_75_75" x1="1557.56" y1="25.6572" x2="1241.75" y2="614.654" gradientUnits="userSpaceOnUse">
<stop stop-color="#444DF8"/>
<stop offset="1" stop-color="#191938"/>
</linearGradient>
<linearGradient id="paint2_linear_75_75" x1="1166.78" y1="-32.1404" x2="1166.78" y2="1090.65" gradientUnits="userSpaceOnUse">
<stop stop-color="#191938"/>
<stop offset="1" stop-color="#444DF8"/>
</linearGradient>
</defs>
</svg>
