<svg width="1504" height="1080" viewBox="0 0 1504 1080" fill="none" xmlns="http://www.w3.org/2000/svg">
<path fill-rule="evenodd" clip-rule="evenodd" d="M1503.23 0H9.25649C-7.82021 31.434 -5.13821 75.6697 50.646 131.894C128.62 210.482 252.817 230.766 397.778 254.441L397.779 254.441C441.141 261.522 486.361 268.907 532.757 278.247C593.705 290.517 828.118 349.671 781.235 620.031C743.729 836.32 886.722 923.255 1085.19 965.321C1097.75 967.983 1110.39 970.644 1123.08 973.313L1123.09 973.317C1266.2 1003.44 1414.23 1034.59 1503.23 1080V0Z" fill="url(#paint0_linear_72_59)"/>
<path fill-rule="evenodd" clip-rule="evenodd" d="M1503.14 0H528.194C517.05 27.5215 518.8 66.2512 555.204 115.477C606.088 184.284 687.137 202.043 781.737 222.77C810.034 228.971 839.544 235.437 869.821 243.614C909.595 254.356 1062.57 306.148 1031.97 542.857C1007.5 732.223 1100.81 808.338 1230.33 845.168C1238.53 847.499 1246.78 849.829 1255.06 852.166L1255.06 852.168L1255.07 852.169C1348.45 878.539 1445.06 905.818 1503.14 945.573V0Z" fill="url(#paint1_linear_72_59)"/>
<path fill-rule="evenodd" clip-rule="evenodd" d="M808.697 0H1503.23V1080H637.809C563.262 928.379 713.912 767.587 942.833 722.303C959.457 719.014 979.708 715.577 1002.44 711.717C1164.5 684.206 1452.75 635.275 1452.75 466.311C1452.75 291.192 1258.4 277.96 1197.04 273.782L1197.04 273.782L1197.02 273.781C1194.29 273.595 1191.81 273.426 1189.63 273.262C1112.12 267.429 996.884 240.972 915.297 190.63C873.393 164.774 818.059 61.7502 808.697 0Z" fill="url(#paint2_linear_72_59)"/>
<defs>
<linearGradient id="paint0_linear_72_59" x1="1443.84" y1="34.1783" x2="1041.83" y2="845.054" gradientUnits="userSpaceOnUse">
<stop stop-color="#444DF8"/>
<stop offset="1" stop-color="#191938"/>
</linearGradient>
<linearGradient id="paint1_linear_72_59" x1="1464.38" y1="29.9242" x2="1056.53" y2="643.09" gradientUnits="userSpaceOnUse">
<stop stop-color="#444DF8"/>
<stop offset="1" stop-color="#191938"/>
</linearGradient>
<linearGradient id="paint2_linear_72_59" x1="1096.98" y1="-37.4856" x2="1096.98" y2="1272.03" gradientUnits="userSpaceOnUse">
<stop stop-color="#191938"/>
<stop offset="1" stop-color="#444DF8"/>
</linearGradient>
</defs>
</svg>
